<svg width="403" height="455" viewBox="0 0 403 455" fill="none" xmlns="http://www.w3.org/2000/svg">
<g id="hangman 1" clip-path="url(#clip0)">

    <path id="1_ground" d="M201.5 455C312.785 455 403 444.544 403 431.646C403 418.748 312.785 408.292 201.5 408.292C90.2146 408.292 0 418.748 0 431.646C0 444.544 90.2146 455 201.5 455Z" fill="black" fill-opacity="0.06"/>

    <rect id="2_pole1" x="66" width="13" height="422" fill="#29171F"/>

    <rect id="3_pole2" width="12" height="232" transform="matrix(-4.37114e-08 -1 -1 4.37114e-08 302 12)" fill="#29171F"/>

    <rect id="4_pole3" width="12" height="135.866" transform="matrix(-0.74952 -0.661982 -0.661982 0.74952 168.935 11.9438)" fill="#29171F"/>

    <path id="5_head" d="M279.814 108.097C277.472 125.283 289.491 141.116 306.658 143.459L306.984 141.066C291.137 138.902 280.043 124.287 282.205 108.423L279.814 108.097ZM306.658 143.459C323.825 145.804 339.64 133.772 341.98 116.585L339.59 116.259C337.428 132.123 322.83 143.23 306.984 141.066L306.658 143.459ZM341.98 116.585C344.322 99.3986 332.304 83.5653 315.136 81.2219L314.811 83.6153C330.657 85.7791 341.751 100.394 339.59 116.259L341.98 116.585ZM315.136 81.2219C297.97 78.8776 282.155 90.9098 279.814 108.097L282.205 108.423C284.366 92.5582 298.964 81.4514 314.811 83.6153L315.136 81.2219Z" fill="black"/>

    <path id="6_body" d="M290.787 135.292V138.513V135.292ZM290.915 231.124C297.211 231.124 302.244 225.882 301.996 219.584L299.045 144.744C298.89 140.814 295.663 137.708 291.734 137.708C287.867 137.708 284.668 140.72 284.432 144.584L279.846 219.341C279.454 225.728 284.523 231.124 290.915 231.124Z" stroke="black" stroke-width="3"/>

    <g id="7_arms">
        <path id="armar" d="M299.798 164.876L318.939 236.198L299.798 164.876ZM319.167 233.294C318.04 234.986 319.329 238.928 322.219 240.819C325.109 242.71 328.366 242.87 329.493 241.178C330.62 239.486 329.191 236.58 326.301 234.69C323.411 232.799 320.294 231.601 319.167 233.294Z" stroke="black" stroke-width="3" stroke-linecap="round"/>
        <path id="armar_2" d="M283.283 162.264L262.676 239.061L283.283 162.264ZM262.502 235.953C263.603 237.745 262.231 241.995 259.29 244.076C256.349 246.158 253.072 246.392 251.972 244.6C250.871 242.808 252.363 239.668 255.305 237.586C258.246 235.504 261.402 234.161 262.502 235.953Z" stroke="black" stroke-width="3" stroke-linecap="round"/>
    </g>

    <g id="8_legs">
        <path id="ben" fill-rule="evenodd" clip-rule="evenodd" d="M297.413 310.272V230H295V312.142H295.108C294.806 314.106 296.164 317.279 298.71 320.154C301.985 323.851 305.988 325.652 307.65 324.177C309.312 322.701 308.004 318.508 304.728 314.81C302.266 312.031 299.394 310.324 297.413 310.272ZM298.663 313.062C298.066 312.793 297.691 312.713 297.477 312.693C297.471 312.908 297.506 313.291 297.7 313.916C298.106 315.216 299.05 316.897 300.515 318.55C301.981 320.204 303.535 321.343 304.774 321.902C305.372 322.17 305.747 322.251 305.961 322.27C305.967 322.056 305.932 321.672 305.737 321.047C305.332 319.748 304.387 318.067 302.922 316.413C301.458 314.76 299.904 313.62 298.663 313.062Z" fill="black"/>
        <path id="ben_2" fill-rule="evenodd" clip-rule="evenodd" d="M284.958 310.272V230H287.371V312.142H287.263C287.565 314.106 286.207 317.279 283.661 320.154C280.386 323.851 276.383 325.652 274.721 324.177C273.059 322.701 274.367 318.508 277.643 314.81C280.105 312.031 282.977 310.324 284.958 310.272ZM283.708 313.062C284.305 312.793 284.68 312.713 284.894 312.693C284.9 312.908 284.865 313.291 284.671 313.916C284.265 315.216 283.321 316.897 281.856 318.55C280.39 320.204 278.836 321.343 277.597 321.902C276.999 322.17 276.623 322.251 276.41 322.27C276.404 322.056 276.438 321.672 276.634 321.047C277.039 319.748 277.984 318.067 279.449 316.413C280.913 314.76 282.467 313.62 283.708 313.062Z" fill="black"/>
    </g>

    <g id="9_dead">
        <path id="rope" d="M284.998 10.9376L290 90" stroke="black" stroke-width="2"/>
        <g id="face">
            <path id="mouth" d="M301 127.104L304.102 127.104C305.207 127.104 306.102 128 306.102 129.104L306.102 129.84C306.102 131.065 307.192 132.002 308.403 131.818L308.802 131.757C310.012 131.573 311.102 132.51 311.102 133.734L311.102 134.407C311.102 135.512 311.998 136.407 313.102 136.407L314.602 136.407C315.707 136.407 316.602 137.303 316.602 138.408L316.602 141.407" stroke="black" stroke-width="2"/>
            <g id="eye2">
                <line id="Line 7" x1="321.38" y1="112.933" x2="311.884" y2="118.485" stroke="black" stroke-width="2"/>
                <line id="Line 9" x1="319.115" y1="120.38" x2="313.563" y2="110.884" stroke="black" stroke-width="2"/>
            </g>
            <g id="eye1">
            <line id="Line 7_2" x1="333.38" y1="122.933" x2="323.884" y2="128.485" stroke="black" stroke-width="2"/>
            <line id="Line 9_2" x1="331.115" y1="130.38" x2="325.563" y2="120.884" stroke="black" stroke-width="2"/>
            </g>
        </g>
    </g>
</g>

<defs>
<clipPath id="clip0">
<rect width="403" height="455" fill="white"/>
</clipPath>
</defs>
</svg>
